<svg width="68" height="27" viewBox="0 0 68 27" fill="none" xmlns="http://www.w3.org/2000/svg">
<path d="M11.9972 24.53C10.8772 25.9767 8.92885 26.7 6.15219 26.7C4.70552 26.7 3.45719 26.2683 2.40719 25.405C1.35719 24.5183 0.832187 23.445 0.832187 22.185C0.832187 21.485 0.867187 20.96 0.937187 20.61L3.28219 8.15L10.3872 7.45L7.83219 20.96C7.73885 21.4733 7.69219 21.8817 7.69219 22.185C7.69219 23.5383 8.10052 24.215 8.91719 24.215C9.82719 24.215 10.6089 23.5967 11.2622 22.36C11.4722 21.9633 11.6239 21.5083 11.7172 20.995L14.2022 8.15L21.0972 7.45L18.5072 21.1C18.4372 21.45 18.4022 21.8117 18.4022 22.185C18.4022 22.5583 18.5072 22.955 18.7172 23.375C18.9272 23.7717 19.3705 24.0167 20.0472 24.11C19.9072 24.67 19.5922 25.1367 19.1022 25.51C18.0755 26.3033 17.0022 26.7 15.8822 26.7C14.7855 26.7 13.9105 26.5017 13.2572 26.105C12.6039 25.7083 12.1839 25.1833 11.9972 24.53ZM31.4173 7.45C32.2573 7.45 33.0039 7.54333 33.6573 7.73C33.6806 7.63667 33.7156 7.46167 33.7623 7.205L33.9373 6.12C34.0306 5.65333 34.1473 5.035 34.2873 4.265L34.8473 1.5L41.8123 0.799999L37.9273 21.1C37.9039 21.24 37.8923 21.4267 37.8923 21.66V22.22C37.8923 22.7333 38.0206 23.1883 38.2773 23.585C38.5339 23.9583 38.8723 24.145 39.2923 24.145C38.8256 25.2417 37.8806 26.0233 36.4573 26.49C35.9673 26.63 35.3723 26.7 34.6723 26.7C33.9956 26.7 33.3423 26.5133 32.7123 26.14C32.0823 25.79 31.6739 25.3117 31.4873 24.705C31.1139 25.3117 30.5539 25.79 29.8073 26.14C29.0606 26.5133 28.1389 26.7 27.0423 26.7C25.9689 26.7 24.9773 26.56 24.0673 26.28C23.1806 26 22.4573 25.5567 21.8973 24.95C20.8706 23.76 20.3573 21.8117 20.3573 19.105C20.3573 15.605 21.3839 12.7933 23.4373 10.67C25.4906 8.52333 28.1506 7.45 31.4173 7.45ZM31.1723 9.55C30.3089 9.55 29.6439 10.0167 29.1773 10.95C28.7106 11.8833 28.2323 13.505 27.7423 15.815C27.2756 18.125 27.0423 20.3183 27.0423 22.395C27.0423 23.8183 27.4623 24.53 28.3023 24.53C29.0489 24.53 29.6789 24.1567 30.1923 23.41C30.7289 22.6633 31.1023 21.6717 31.3123 20.435L33.2023 10.18C32.7123 9.76 32.0356 9.55 31.1723 9.55ZM48.2173 24.075C47.4939 25.825 45.9773 26.7 43.6673 26.7C42.4773 26.7 41.5089 26.2917 40.7623 25.475C40.1323 24.7517 39.8173 24.0283 39.8173 23.305C39.8173 21.415 40.2489 18.6267 41.1123 14.94L42.4073 8.15L49.5123 7.45L47.3773 18.51C46.9806 20.2367 46.7823 21.4033 46.7823 22.01C46.7823 23.34 47.2606 24.0283 48.2173 24.075ZM43.0373 3.285C43.0373 2.375 43.4106 1.675 44.1573 1.185C44.9273 0.694999 45.8606 0.449999 46.9573 0.449999C48.0539 0.449999 48.9289 0.694999 49.5823 1.185C50.2589 1.675 50.5973 2.375 50.5973 3.285C50.5973 4.195 50.2239 4.88333 49.4773 5.35C48.7539 5.81667 47.8439 6.05 46.7473 6.05C45.6506 6.05 44.7523 5.81667 44.0523 5.35C43.3756 4.88333 43.0373 4.195 43.0373 3.285ZM56.3791 26.7C51.2458 26.7 48.6791 24.285 48.6791 19.455C48.6791 16.025 49.6241 13.2017 51.5141 10.985C53.5208 8.62833 56.2624 7.45 59.7391 7.45C62.2591 7.45 64.1608 8.03333 65.4441 9.2C66.7274 10.3667 67.3691 12.175 67.3691 14.625C67.3691 18.3583 66.3658 21.31 64.3591 23.48C62.3991 25.6267 59.7391 26.7 56.3791 26.7ZM57.2891 11.475C57.0091 12.105 56.7524 12.8983 56.5191 13.855C56.3091 14.7883 56.0641 16.0017 55.7841 17.495C55.5041 18.9883 55.3641 20.6567 55.3641 22.5C55.3641 23.1067 55.4574 23.6083 55.6441 24.005C55.8541 24.4017 56.2274 24.6 56.7641 24.6C57.3008 24.6 57.7324 24.4717 58.0591 24.215C58.4091 23.9583 58.7124 23.5267 58.9691 22.92C59.4358 21.8467 59.8558 20.3183 60.2291 18.335C60.6024 16.3283 60.8008 14.8933 60.8241 14.03C60.8708 13.1667 60.8941 12.42 60.8941 11.79C60.8941 11.1367 60.8008 10.6 60.6141 10.18C60.4274 9.76 60.0658 9.55 59.5291 9.55C59.0158 9.55 58.5841 9.71333 58.2341 10.04C57.8841 10.3667 57.5691 10.845 57.2891 11.475Z" fill="#64B991"/>
</svg>
